<svg id="Capa_1" data-name="Capa 1" xmlns="http://www.w3.org/2000/svg" width="896" height="960" viewBox="0 0 896 960"><defs><style>.cls-1{fill:none;stroke:#000;stroke-miterlimit:10;stroke-width:2px;}</style></defs><title>monstruo3</title><path class="cls-1" d="M39.9969,374.1658c-2.3344.3825-2.3528,3.5809-5.0722,4.1334-.1684-3.0338,1.8783-5.055,2.6432-7.4471a30.665,30.665,0,0,0,.3722-16.848c-.2018-.8479-.4788-1.7635-1.49-1.69-5.276.3828-4.1146-3.2374-3.5763-6.0476.4871-2.5434,1.1242-5.2429-.6166-7.1754-2.8355-3.1475-1.3278-4.36,1.6431-5.5111a10.0108,10.0108,0,0,0,1.9815-1.4073c-4.0251-3.2491-3.9575-7.86.7172-11.1919,3.2234-2.2975,4.2134-6.323,7.6315-8.2762.8487-.485,1.452-1.6841.2668-2.4845-2.3388-1.58-1.5632-4.2868-1.1848-5.8292.5879-2.3959.6233-3.2471-1.9506-3.5377-1.1241-.127-1.8085-.9729-.763-2.1095.8867-.964,4.1438-.2434,2.2223-3.1759,4.43-.6387,3.268-2.8034,2.12-5.8291-1.0116-2.6663,2.1871-3.7891,3.838-5.2285,4.87-4.2462,4.9375-4.1767-.0228-7.8733-.9533-.71-2.3653-1.6622-.7745-2.6239A11.6514,11.6514,0,0,0,53.48,266.81c.2644-.9437,1.3973-1.2966,2.4231-1.5438,1.1834-.2852,3.8559.3677,3.3391-.66-1.3323-2.6492,2.7147-4.9752-.3025-7.6491-1.7994-1.5946-3.9021-3.5889-4.467-6.3828,2.5443-1.3724,3.4289,2.04,5.6982,1.4875l-.5532-8.623c1.5445-1.1052,2.3251.8,3.5351.87,1.9927.114,3.9079.5467,4.2043-2.6352a7.1751,7.1751,0,0,1,3.0487-5.7575c1.3481-.8466,1.2886-2.216.8047-3.58a6.0646,6.0646,0,0,1,2.3932-7.0562c3.3813-1.9351,6.4393-3.5411,8.0142-7.4527.7307-1.815,1.5847,1.0949,2.7923.7114.6906-1.6968-.5819-3.107-.8244-4.6728-.1852-1.1961-.454-2.7167.7473-3.15,4.9689-1.7924,4.4845-5.9962,4.754-9.9368.1068-1.5615-.2808-3.2928,2.4023-1.3285,1.6888,1.2363,7.12-4.8726,6.2537-7.6348-1.3591-4.335,1.8231-6.3926,3.2276-9.5208,1.7488-3.8952,4.2693-5.1684,7.9479-5.5794.6507-.0728,1.6808-.1743,1.8557-.5662,2.4251-5.4324,9.7986-5.4294,12.0309-11.0223.2842-.712.5727-2.1264,1.44-1.5718,5.8888,3.7657,4.3686-2.5026,5.7505-4.39,1.051-1.4351,1.3354-3.83,3.5172-3.6118,4.1637.4156,5.8979-2.1121,7.2129-5.4234,2.2041.958.9475,3.7911,3.3952,4.5724.5259-1.726.281-4.0871,3.0214-4.6142,7.5667-1.4555,12.9275-6.3088,17.8575-11.8639,1.2921-1.4559,2.0053-4.82,5.6229-1.6622,1.4128,1.2333,4.9071-1.9223,6.8273-3.7522,1.6884-1.6089,3.3471-3.2439,5.5139-3.6932,9.0657-1.88,10.4918-9.32,10.85-16.3048.5327-10.397,4.853-19.2,9.342-28.0718,2.136-4.2217,6.7757-4.9912,10.64-5.6789,7.1636-1.2749,13.4762-5.1855,18.5214-9.1071,4.8294-3.7538,10.9728-8.4,12.1359-16.0116.6352-4.1562,2.6495-6.85,7.5195-8.6356,3.7252-1.3661,8.1171-3.3312,11.3555-6.0985,5.4514-4.6584,11.2415-4.811,17.7315-3.4153,3.1693.6815,6.5088-.1715,9.8424.6653,2.13.5346,3.9562-1.496,5.1159-3.418,2.2652-3.7543,5.618-6.58,8.3008-9.9481,3.6606-4.5951,8.1595-4.8923,13.0034-3.2354a7.867,7.867,0,0,0,7.8685-1.0734,9.69,9.69,0,0,1,11.7154-.017c3.5964,2.5831,3.1513,6.341,2.607,10.4046-.6959,5.1958-.3869,10.5348-.3947,15.8123a24.7485,24.7485,0,0,1-9.4754,20.0082c-6.1038,5.0717-10.3393,11.7979-13.6661,18.8266-2.8671,6.0572-4.1343,12.685-.3779,19.2107a15.5515,15.5515,0,0,1,1.5867,5.2246c1.085,6.7153,6.0412,10.4652,10.82,14.3327,1.5793,1.2782,2.7814.1739,3.7447-1.126,10.4029-14.0385,23.9879-11.3749,36.51-7.52a6.0549,6.0549,0,0,1,4.5265,5.4808c.5683,10.3417.5467,20.5231-6.0381,29.5519a90.2318,90.2318,0,0,0-15.2372,33.2191c-.3835,1.67-.2009,2.6957,1.6233,2.7474,3.6011.1019,7.23,1.4992,10.7985-.3905,3.5653-1.888,7.1847-.4314,10.7529.13,2.9906.4706,5.5932.5952,6.9538-2.96.9087-2.3742,3.2178-2.6722,5.47-2.66,2.2715.012,4.3466-.0473,4.8-3.0568.4134-2.7443,1.2087-4.991-2.0975-7.1019-3.627-2.3157-7.7971-3.71-10.9972-6.8075-6.4563-6.25-5.1068-14.1275-4.4772-21.6316a79.1352,79.1352,0,0,1,3.4238-17.6045A30.8911,30.8911,0,0,1,407.19,101.0256c3.6658-.033,7.3323.0167,10.9985.0326a10.4524,10.4524,0,0,1,5.7081,1.5477c3.42,2.1688,3.4723,3.6651-.0771,5.5685-5.1352,2.7537-10.4916,5.0885-15.2506,8.5331a20.5856,20.5856,0,0,0-6.1606,6.4484c-3.028,5.365-1.3316,10.2662,4.3369,12.5137a34.4929,34.4929,0,0,0,4.7384,1.5836c4.8056,1.135,9.1364,1.5374,13.2646-2.704,7.5253-7.7316,17.8947-10.58,27.6043-14.4064,3.5774-1.41,7.3087-2.3862,9.8291-5.5942.9012-1.147,2.2105-1.3041,3.5525-1.54,5.7164-1.0063,11.52-1.2925,17.1608-3.072a14.4051,14.4051,0,0,1,10.5365.5286c4.178,1.8417,9.0268-.57,13.6459-.7151a98.7554,98.7554,0,0,1,29.435,3.5766c4.0415,1.1022,8.9674,3.2555,11.88-1.4757,2.6677-4.333-.1112-8.5338-2.3913-12.4431-3.4342-5.8879-9.1379-5.2141-14.5931-5.0537-3.0344.0893-7.1527,2.1819-8.4178-1.5717-1.1163-3.3119,2.9743-5.0943,5.4176-6.9122a51.8967,51.8967,0,0,1,14.9045-8.0224c4.23-1.3706,8.2636-1.3732,11.1923,2.7659,2.1139,2.9877,6.57,2.1755,8.683,5.4539.5327.8265,1.6933-.6545,1.5316-1.6924-.6447-4.1394-1.6128-8.2614,2.875-11.1447.4125-.265-.0492-1.8742-.087-2.86a4.619,4.619,0,0,1,3.1257-5.0159c7.4565-3.2247,7.4081-3.3366,6.3268-11.3178-.1108-.8175,3.9836-5.3366,4.999-5.5177,4.7212-.8417,7.8989-4.3752,7.1789-9.091-.5284-3.4616,2.7009-1.7634,3.6288-3.4807,2.0006-3.7027,4.9251-6.9111,4.7357-11.7582,2.4374.9431,2.1886,3.1193,3.7812,4.2867,0-2.4688-.0064-4.7648.0034-7.0608.0037-.85.0923-1.7913,1.0115-2.071,1.0628-.3234,1.5248.565,1.6256,1.3911.2952,2.421,1.8527,2.6385,3.574,1.891,3.4877-1.5146,7.6809,1.1246,10.859-1.9466a2.3568,2.3568,0,0,1,.8053-.4135c2.3389,3.9226,7.915-.5565,10.0969,3.9186.6391,1.3107,4.5074-.661,2.8533,3.0663,1.954-.3237,1.1837-2.5847,2.8052-2.7976,5.6669,2.0572,5.7208,2.0577,7.1-.3848,1.1006,2.3964,2.1817,4.7322,4.5434,1.0525.6183-.9634,2.9358-.3928,4.17.5,1.2225.8839.3558,2.0961-.0078,3.1791-.4046,1.2053-1.51,2.2414-.705,4.4113,2.9829-3.4034,4.9021-7.4531,9.2572-10.0036-.2775,4.2268-1.7466,7.6643-1.4059,10.946,7.0349,1.9833,13.89-2.8944,20.8028.1515-2.3824,6.1675-1.948,6.78,5.3914,6.63,1.5184-.031,1.7288.7008,1.4526,1.7958-.3653,1.4483-1.0385,2.8238-1.3507,4.28-1.3309,6.2072,1.4654,9.2588,7.8026,8.6111,7.3249-.7486,9.0954,1.2924,6.4885,7.5094,5.2646,1.844,8.5975,4.6585,8.4321,11.1419-.0953,3.7364,1.562,8.0656,7.0939,7.7777,2.5058-.13,3.2552.9746,3.41,3.6068.2306,3.9225,1.6461,7.4652,6.8994,6.6161.0375,1.9761-2.181,1.3444-2.7574,3.0015l7.9823,3.179c-1.1625,1.2888-2.77,1.6061-1.1213,4.2272,2.1318,3.3884,3.449,7.2231,7.0182,9.5335a2.4711,2.4711,0,0,1,1.0761,2.6372c-1.2334,4.9857,2.3309,6.397,5.7643,7.5682,2.2978.7838,3.02,2.076,3.2876,4.3027.3811,3.1669.0146,6.8377,4.3112,8.0706,1.0146.2912,1.4708,1.3225.24,2.2512-1.3924,1.05-.4035,1.7616.5134,2.1351,3.4218,1.3937,4.5493,5.5162,8.3754,6.6753,1.4048.4256,3.156,3.0713.4161,4.7407-3.9019,2.3774-1.7221,4.7269.3191,6.1875,2.85,2.04,3.9732,4.3108,5.0648,7.7045,1.0789,3.3548,3.067,6.7143,4.3418,10.2485,1.8615,5.1614,2.7687,10.5734,5.8407,15.4686,1.3473,2.1469.9583,6.3162,1.0194,9.4731a5.6433,5.6433,0,0,0,2.7481,5.1665c4.1809,3.1065,5.6569,9.1949,12.0223,10.2166-4.4549,2.1933-7.9377,4.0644-4.6257,9.5566.5865.9727-1.3282,4.4693-2.929,5.5253-2.9616,1.9534-1.8581,3.4077.1527,4.25,5.48,2.2953,3.2383,8.1039,5.6633,11.7821.6352.9634-1.2686,2.1787-2.5054,2.6552-2.56.9862-2.7226,2.413-1.3844,4.6344,1.6884,2.8027,2.5168,5.251,1.1965,9.12-.8769,2.57-1.43,7.2571,1.2623,10.6456,2.2815,2.872.27,6.5411,1.3261,9.947,2.211,7.1318,3.2836,14.61,4.9864,21.908,1.32,5.6584.611,10.7369-2.82,15.6026a53.7149,53.7149,0,0,0-9.27,21.6628c-1.2371,6.7225-2.8107,14.2744-11.6821,16.6711-3.7864,1.023-6.2964,5.077-10.3346,6.6164-2.4168.9213-2.0812,4.2383-2.7162,6.6382-2.7187,10.2757-5.838,20.4968-13.8825,28.0315A22.7084,22.7084,0,0,1,725.1575,406.1c-7.5733-.8955-10.5586-8.0579-12.7944-14.5656-2.1847-6.3587-.0174-12.098,4.0254-17.2288,3.7786-4.7953,3.4095-6.9728-1.6974-10.5075a11.1536,11.1536,0,0,0-2.9631-1.8351c-8.2359-2.3469-16.4789-4.68-24.7795-6.781-2.3387-.5918-4.4786.7491-6.5452,1.9515-6.88,4.0034-15.6928,3.626-21.1911-.776-4.5616-3.6521-6.4682-12.85-4.2671-19.9639,4.4065-14.2424,9.8739-27.9508,19.8733-39.3434,2.3884-2.721,1.703-4.5692-.3355-7.3082-4.3571-5.8543-11.3619-9.3877-14.2054-16.5278a2.7149,2.7149,0,0,0-3.2691-1.7457c-2.1671.6942-.5889,2.1719-.3744,3.2977a5.099,5.099,0,0,1-.7776,3.3292c-3.1938,6.4333-5.738,13.06-6.0878,20.3426-.0419.8723-.1289,1.869-1.1558,1.9225-3.4406.1793-3.1873,2.101-2.3035,4.4636.1647.44.2788,1.2563.052,1.434-4.771,3.74-1.5976,7.68-.3759,11.5877,1.434,4.5859-1.0472,9.5851,1.5875,14.2126.4361.7659-1.5878,3.9607-3.0772,4.5767-2.9419,1.2167-2.0159,2.99-1.3891,4.6921a18.62,18.62,0,0,1-2.1533,17.7791c-.9714,1.4479-.7958,3.1935-.87,4.8561a40.82,40.82,0,0,1-2.1874,11.713c-.854,2.4576-1.6211,5.3937-1.0707,7.8057,1.5647,6.8576-.1565,12.9448-2.93,19.0313a11.05,11.05,0,0,0-.5144,7.86c1.6486,5.132-.1362,10.6886,2.2344,15.6733a1.876,1.876,0,0,1,.0063,1.4562c-1.8521,3.612-6.1328,6.4712-3.4543,11.4526-4.7151,1.8464-3.2138,6.223-3.2334,9.4158-.05,8.1308-.7041,16.0223,1.7536,24.4522,2.1888,7.5073,3.833,15.5087,5.4577,23.322.6413,3.0844,2.2114,7.7016-1.2559,11.6165-1.5314,1.729,1.1146,5.7506,2.1218,8.1364,3.054,7.2338,2.99,15.2168,6.2913,22.2867,1.19,2.5484,2.6589,4.6714,5.4473,5.4462,6.6722,1.8541,11.2418,6.6946,14.8919,11.9282,1.9328,2.7711,2.3222,7.3247,1.8784,10.8827-.6744,5.4067,1.847,9.7407,4.4245,13.3249,4.9546,6.89,4.6662,14.8665,6.6766,22.36,2.5744,9.5952,2.9617,19.7759,8.433,28.6159,2.2616,3.6539,5.6077,4.5711,9.0475,5.4951,2.246.6033,3.7248,1.14,4.6575,3.603,1.5829,4.1807,5.02,6.4821,9.4744,7.1825a21.1632,21.1632,0,0,1,10.2416,4.872c4.3787,3.6005,5.5447,8.1131,3.98,13.4467-.5157,1.7585-1.2358,3.4741-1.5752,5.2638-.6838,3.6077.8439,6.5289,3.3755,8.9336,2.5532,2.4251,4.6544.21,6.707-.9709,10.0112-5.7573,11.2885-5.51,18.133,4.1841.8329,1.18,1.9332,1.1338,3.0608,1.25a20.1522,20.1522,0,0,1,10.0548,4.1012c4.663,3.4578,6.0364,7.5726,4.1891,13.1593a34.32,34.32,0,0,1-4.03,8.5661,8.7457,8.7457,0,0,0-1.5733,7.0554c2.1281,10.256-3.61,21.2827-13.1559,26.1451-4.4661,2.2749-8.694,4.5156-14.1044,3.2289-3.4339-.8168-5.8389,1.8942-7.9908,4.2758a61.8017,61.8017,0,0,1-27.9011,18.201,11.8,11.8,0,0,0-7.0392,6.01c-8.998,16.964-21.9237,29.0511-40.3878,35.6857-13.0185,4.678-26.3488,8.2221-39.4091,12.6734a22.394,22.394,0,0,1-4.8773.905c-10.2993,1.076-20.6023.1144-30.9015-.0648-6.12-.1064-11.6671-5.3171-13.864-12.6247-.8221-2.7345-1.7065-5.6634-.9947-8.3616,1.5639-5.9289-2.9033-9.6559-4.5927-14.3791a1.4717,1.4717,0,0,0-.6524-.7179c-1.5645-.8379-4.6319.63-4.6379-2.4832-.008-4.1748-2.02-8.39.6435-12.5678a12.0832,12.0832,0,0,0,.69-12.8242,4.2731,4.2731,0,0,1-.4807-2.9027,9.796,9.796,0,0,0-5.6408-11.7713c-4.8133-1.8223-7.094-7.21-11.5139-7.6508-5.3088-.5293-10.4315-.4989-14.8989-3.871-.2282-.1722-1.0864.0733-1.3108.3764-2.7845,3.7605-7.3659,4.1058-11.1759,5.874-1.7057.7914-.8766,1.8536-.8065,2.8873.2654,3.9147-.5529,6.631-4.7367,8.7276-9.25,4.6352-8.0954,19.2512,1.5919,24.9981q9.1593,5.4337,18.1871,11.0862a7.9,7.9,0,0,1,3.0165,3.2226c6.8818,16.0653,7.4427,31.424-3.9432,46.1931-6.322,8.2005-6.4492,17.8942-4.9922,28.1129,1.37,9.6114,2.2394,19.3861-3.675,28.7438-4.1752,6.6058-8.3453,13.44-8.5775,22.3284-.2558,9.7941-4.3044,18.93-14.1741,23.5147-5.8171,2.7018-12.3448,2.7351-18.5941,3.0939-8.6357.496-17.323.0975-25.9881.0693-2.22-.0072-4.8271-.1428-5.8329-2.1667-1.9924-4.0089-4.2015-2.7444-7.2133-1.4015-9.1306,4.071-18.6559,1.33-28.0585,1.5006-9.4859.1724-12.9472-4.6039-14.6234-12.5213-.9132-4.3133-3.1081-1.6759-4.6077-.6383-6.1752,4.2726-12.7025,6.5754-20.2414,4.3364-.479-.1424-1.0852-.134-1.4226-.4326-4.1454-3.6671-7.8856-3.606-12.4311-.0719-2.83,2.2006-4.3832-1.0292-5.0537-3.498-1.8743-6.9012-1.0278-13.5179,3.2416-20.4427-6.45,2.151-5.5417-3.7441-7.676-6.081-2.5235-2.7631-.42-11.2006,2.8649-13.3134a19.4593,19.4593,0,0,0,7.5645-9.688c2.7869-7.4068,7.9183-13.0268,12.7318-18.909,2.5423-3.107,3.3984-7.6093,7.8064-9.2682,1.3032-.49,1.5331-1.9956.4533-3.3814-4.3187-5.5427-8.1932-11.5018-13.0348-16.5348-2.1821-2.2684-5.2848-3.3564-4.51-7.27a.6746.6746,0,0,0-.1649-.4591c-3.6391-4.6783-3.6368-4.6778-4.27-12.0824a9.8564,9.8564,0,0,0-.2888-1.3088c-1.3645.1466-1.656,1.205-2.1428,2.0328a5.6836,5.6836,0,0,1-2.2556,2.5059c-.143-2.5233-1.1213-5.3819-.2689-7.5056,2.3409-5.8317-.4244-10.51-2.9439-14.9755a25.2823,25.2823,0,0,1-2.9551-11.04c-.2777-5.6365-2.62-9.0866-6.3663-12.6559a15.5655,15.5655,0,0,1-3.8158-7.4244,21.6682,21.6682,0,0,0-3.1361-7.2072c-1.6456-2.4631-2.7285-5.7719-6.8648-1.1525.8545-5.6325,1.93-9.9652-3.4714-12.31-1.4073-.6109-.57-2.7816-.9161-4.1959-.5062-2.0708-1.2339-5.8817-1.8161-5.8721-9.618.1595-5.3092-8.009-7.22-12.19-.9067-1.9841-1.02-4.6626-2.7322-6.1176-2.0325-1.7275-3.6922-3.2776-3.2424-6.1675.4366-2.805-2.4073-3.157-3.7278-3.9663-5.0557-3.0989-8.1046-8.3326-13.2766-11.3558a197.0478,197.0478,0,0,0-31.3168-15.0144c-10.6623-3.9239-22.0721-4.969-33.2535-6.6085-14.1564-2.0757-28.3439-3.7144-42.39-6.6947-12.4782-2.6478-19.2822-11.0193-24.7862-21.1935-1.7712-3.2741-4.4794-6.4849-3.9626-10.5307.6519-5.1036,9.4872-8.9725,15.0183-7.2764,6.0012,1.84,11.599,4.5,18.6375,1.5376,4.2491-1.7886,10.2127-.36,15.0436,1.7594,3.4338,1.5063,6.6578,1.0206,10.2012.3492,6.2341-1.1811,12.35-2.3493,17.4284-6.4983a.76.76,0,0,1,.4677-.16c10.6923.4157,21.2831-3.2252,32.0217-.8168,3.3109.7425,6.2678.5476,8.4761-2.5192a5.76,5.76,0,0,1,2.5492-2.3267c7.1653-1.961,8.71-7.6662,9.8253-13.9016.6275-3.5075,1.8058-6.9165,3.1077-11.75-3.4834,3.4184-7.1479,2.2622-10.6835,4.7035,1.4733-6.3654.27-11.9565,1.5384-17.4646.2615-1.1357,2.5193-4.1235-1.57-4.2352-.7305-.02-.5085-1.1349-.1371-1.66,2.2591-3.1911,1.6536-7.51,4.2424-10.5877a3.2274,3.2274,0,0,0,.6248-3.729c-1.1033-2.0462-.0312-3.4258,1.2063-4.901.722-.8606,1.896-2.4646,1.6156-2.8709-2.9723-4.3075,1.0446-6.3183,2.8852-8.8146,3.663-4.9675,6.14-11.6,5.6344-16.4625-.7612-7.3271,1.0049-13.9221,1.7206-20.7819.7218-6.9192,4.734-13.1705,4.9956-20.2535.2062-5.581,1.9267-10.7274,3.8367-15.8639.3443-.9258,1.041-2.1593.7135-2.83-4.7-9.626,2.79-17.4074,3.8546-26.1364.3-2.4616,3.1368-5.5438-2.1429-6.1246-1.1919-.1311-.8565-1.6166-.6694-2.5765,1.6334-8.3811-1.7153-15.6643-8.15-19.6865-3.3974-2.1237-6.2292-6.32-11.1218-6.3454-1.3371-.0069-3.3251-.85-3.8875-1.9083-2.36-4.4417-7.36-4.0623-10.9145-6.2489-3.5563-2.1876-9.0883-1.6619-8.6039-8.1136.0456-.6069-1.001-1.9-1.381-1.8412-3.9058.6029-6.4921-2.6555-9.8908-3.231-3.2109-.5436-6.9241,1.2507-9.3038-2.636-.636-1.0386-2.1069-.5251-3.2269.0148a2.6623,2.6623,0,0,1-1.8428.3687c-5.6578-2.5506-11.3366-2.279-17.5712,1.06-2.6425,1.4152-5.2138,2.9641-7.8079,4.4687-1.7569,1.0192-3.1124,2.3415-4.53-.8746-1.1422-2.5909-3.33-.367-4.4753.6438-4.7341,4.1786-9.4428,8.2333-15.2768,10.9837-4.2688,2.0124-8.4567,3.3674-13.1667,2.8949-.6468-.0648-1.5217-.3947-1.911-.1-4.6944,3.5537-10.0568,3.4444-15.5251,3.1472-.9306-.0506-2.011.72-2.6417-.4085-1.0071-1.8024-1.6144-1.1572-2.9179-.1124-3.8364,3.0751-8.24,4.93-12.8887,6.7561a26.0273,26.0273,0,0,1-13.8705,1.8828c-1.2546-.1814-2.14.6214-2.7138,1.801-3.2513,6.68-9.5658,7.2256-14.4119.559.325,4.9991-2.9288,4.8334-5.9991,5.8959-2.7606.9553-4.4361,3.714-8.391,2.4289-4.0036-1.3008-7.4649,1.672-11.1284,4.5531.4718-4.9306-3.8742-8.1412-2.8591-12.8968-2.4557-.056-1.6815,2.5884-3.6867,3.049q-.9945-4.117-2.0211-8.3663c-3.8591,1.8021-6.7906,4.05-7.6916,8.46l-1.5963-16.32c-2.5-.718-2.482,1.785-3.8672,2.7215-1.1617-2.0435,1.4579-7.4953-4.45-5.2487-.5093-2.2578-1.5834-4.4181-.4873-6.8561,2.4929-5.5448,2.0681-6.6917-3.7507-7.6055C38.0784,379.7089,41.4272,376.0582,39.9969,374.1658Z"/></svg>